<?xml version="1.0" encoding="UTF-8" standalone="no"?><!-- Generator: Gravit.io --><svg xmlns="http://www.w3.org/2000/svg" xmlns:xlink="http://www.w3.org/1999/xlink" style="isolation:isolate" viewBox="317 847.282 608 741.436" width="608pt" height="741.436pt"><g><path d=" M 621 1347.282 C 759.072 1347.282 871 1235.354 871 1097.282 C 871 959.211 759.072 847.282 621 847.282 C 482.929 847.282 371 959.211 371 1097.282 C 371 1235.354 482.929 1347.282 621 1347.282 Z  M 685.954 1059.778 C 668.446 1029.452 560.602 974.695 547.338 968.043 C 546.7 967.723 545.954 968.154 545.912 968.867 C 545.042 983.68 538.542 1104.452 556.05 1134.778 C 573.558 1165.104 681.402 1219.862 694.664 1226.514 C 695.304 1226.834 696.05 1226.404 696.092 1225.69 C 696.962 1210.878 703.462 1090.104 685.954 1059.778 Z " fill-rule="evenodd" fill="rgb(79,79,79)" fill-opacity="0.78"/><g clip-path="url(#_clipPath_ca1ve5jtmYZfiwG8Uu3akgckrbKlHcgR)"><text transform="matrix(1,0,0,1,317.437,1531.062)" style="font-family:'Atomic Age';font-weight:400;font-size:180px;font-style:normal;fill:#4f4f4f;stroke:none;">Locale</text></g><defs><clipPath id="_clipPath_ca1ve5jtmYZfiwG8Uu3akgckrbKlHcgR"><rect x="0" y="0" width="608" height="241.436" transform="matrix(1,0,0,1,317,1347.282)"/></clipPath></defs></g></svg>